<mxfile host="app.diagrams.net" modified="2023-06-12T15:08:10.519Z" agent="Mozilla/5.0 (Macintosh; Intel Mac OS X 10_15_7) AppleWebKit/605.1.15 (KHTML, like Gecko) Version/15.3 Safari/605.1.15" version="21.3.7" etag="jZxULPZx5nBEJ6pOVlx4" type="github">
  <diagram name="第 1 页" id="usyzML8Xc9plXJUUFw8d">
    <mxGraphModel>
      <root>
        <mxCell id="0" />
        <mxCell id="1" parent="0" />
      </root>
    </mxGraphModel>
  </diagram>
</mxfile>
